<?xml version="1.0" encoding="UTF-8" standalone="no"?>
<svg
   version="1.1"
   viewBox="0 0 24 24"
   id="svg2"
   width="24"
   height="24"
   xmlns="http://www.w3.org/2000/svg"
   xmlns:svg="http://www.w3.org/2000/svg">
  <defs
     id="defs2" />
  <path
     id="path5"
     style="baseline-shift:baseline;display:inline;overflow:visible;opacity:1;vector-effect:none;fill:currentColor;stroke-linecap:round;enable-background:accumulate;stop-color:#000000;stop-opacity:1"
     d="m 10,2.5 c -5.2289382,0 -9.5,4.2710618 -9.5,9.5 0,5.228937 4.2710618,9.500001 9.5,9.5 h 8 c 3.019799,0 5.5,-2.480202 5.5,-5.499999 C 23.5,14.429861 22.829962,13.0056 21.761719,12 22.829962,10.9944 23.5,9.5701393 23.5,8 23.5,4.9802007 21.019799,2.5 18,2.5 Z m 0,3 h 8 c 1.398479,0 2.5,1.1015209 2.5,2.5 0,1.3984788 -1.101521,2.5 -2.5,2.5 h -4.013672 v -0.01367 c -1.398479,0 -2.5,-1.1015212 -2.5,-2.5 H 8.4863281 c 0,1.398479 -1.101521,2.5 -2.5,2.5 v 3 c 1.3984789,0 2.4999998,1.101521 2.5,2.5 h 2.9999999 c 0,-1.307808 0.963788,-2.355916 2.232422,-2.486328 H 18 c 1.398479,0 2.5,1.10152 2.5,2.5 0,1.398479 -1.101521,2.499999 -2.5,2.5 H 10 C 6.3923822,18.5 3.5,15.607618 3.5,12 3.5,8.3923821 6.3923822,5.4999999 10,5.5 Z" />
</svg>
